<svg xmlns="http://www.w3.org/2000/svg" x="0px" y="0px" width="100" height="100" viewBox="0,0,256,256">
<defs><linearGradient x1="32" y1="17.936" x2="32" y2="43.068" gradientUnits="userSpaceOnUse" id="color-1_icTiMgoOHSVy_gr1"><stop offset="0" stop-color="#8ab4ff"></stop><stop offset="1" stop-color="#e492ff"></stop></linearGradient><linearGradient x1="32" y1="8.553" x2="32" y2="55.331" gradientUnits="userSpaceOnUse" id="color-2_icTiMgoOHSVy_gr2"><stop offset="0" stop-color="#1a6dff"></stop><stop offset="1" stop-color="#c822ff"></stop></linearGradient></defs><g fill="none" fill-rule="nonzero" stroke="none" stroke-width="1" stroke-linecap="butt" stroke-linejoin="miter" stroke-miterlimit="10" stroke-dasharray="" stroke-dashoffset="0" font-family="none" font-weight="none" font-size="none" text-anchor="none" style="mix-blend-mode: normal"><g transform="scale(4,4)"><path d="M41.806,25h-24.774l5.161,-6h24.774zM17.032,45h24.774l5.161,-6h-24.773zM17.032,29l5.161,6h24.774l-5.161,-6z" fill="url(#color-1_icTiMgoOHSVy_gr1)"></path><path d="M32,58c-14.337,0 -26,-11.663 -26,-26c0,-14.336 11.663,-26 26,-26c14.337,0 26,11.664 26,26c0,14.337 -11.663,26 -26,26zM32,8c-13.233,0 -24,10.767 -24,24c0,13.233 10.767,24 24,24c13.233,0 24,-10.767 24,-24c0,-13.233 -10.767,-24 -24,-24z" fill="url(#color-2_icTiMgoOHSVy_gr2)"></path></g></g>
</svg>